<mxfile host="Electron" agent="Mozilla/5.0 (Windows NT 10.0; Win64; x64) AppleWebKit/537.36 (KHTML, like Gecko) draw.io/24.7.8 Chrome/128.0.6613.36 Electron/32.0.1 Safari/537.36" version="24.7.8">
  <diagram name="Page-1" id="Tthz77FbjQtNt6w7K4kS">
    <mxGraphModel dx="1195" dy="697" grid="1" gridSize="10" guides="1" tooltips="1" connect="1" arrows="1" fold="1" page="1" pageScale="1" pageWidth="1100" pageHeight="850" math="0" shadow="0">
      <root>
        <mxCell id="0" />
        <mxCell id="1" parent="0" />
        <mxCell id="ZsytykOLIlVNU7V24-1N-3" value="" style="rounded=0;whiteSpace=wrap;html=1;snapToPoint=1;arcSize=12;" vertex="1" parent="1">
          <mxGeometry x="310" y="170" width="120" height="230" as="geometry" />
        </mxCell>
        <mxCell id="ZsytykOLIlVNU7V24-1N-5" value="Master&lt;div&gt;SoC&lt;/div&gt;" style="text;html=1;align=center;verticalAlign=middle;resizable=0;points=[];autosize=1;strokeColor=none;fillColor=none;" vertex="1" parent="1">
          <mxGeometry x="340" y="265" width="60" height="40" as="geometry" />
        </mxCell>
        <mxCell id="ZsytykOLIlVNU7V24-1N-18" value="" style="pointerEvents=1;verticalLabelPosition=bottom;shadow=0;dashed=0;align=center;html=1;verticalAlign=top;shape=mxgraph.electrical.resistors.resistor_2;direction=south;strokeWidth=1;" vertex="1" parent="1">
          <mxGeometry x="155" y="150" width="10" height="50" as="geometry" />
        </mxCell>
        <mxCell id="ZsytykOLIlVNU7V24-1N-19" value="V&lt;sub&gt;dd&lt;/sub&gt;" style="verticalLabelPosition=top;verticalAlign=bottom;shape=mxgraph.electrical.signal_sources.vdd;shadow=0;dashed=0;align=center;strokeWidth=1;fontSize=24;html=1;flipV=1;noLabel=1;" vertex="1" parent="1">
          <mxGeometry x="152" y="140" width="16" height="12" as="geometry" />
        </mxCell>
        <mxCell id="ZsytykOLIlVNU7V24-1N-20" value="" style="endArrow=none;html=1;rounded=0;entryX=0.5;entryY=0;entryDx=0;entryDy=0;entryPerimeter=0;exitX=0;exitY=0.5;exitDx=0;exitDy=0;exitPerimeter=0;strokeWidth=1;" edge="1" parent="1" source="ZsytykOLIlVNU7V24-1N-18" target="ZsytykOLIlVNU7V24-1N-19">
          <mxGeometry width="50" height="50" relative="1" as="geometry">
            <mxPoint x="130" y="140.5" as="sourcePoint" />
            <mxPoint x="180" y="90.5" as="targetPoint" />
          </mxGeometry>
        </mxCell>
        <mxCell id="ZsytykOLIlVNU7V24-1N-21" value="" style="endArrow=none;html=1;rounded=0;entryX=0.5;entryY=0;entryDx=0;entryDy=0;exitX=1;exitY=0.5;exitDx=0;exitDy=0;exitPerimeter=0;strokeWidth=1;" edge="1" parent="1" source="ZsytykOLIlVNU7V24-1N-18" target="ZsytykOLIlVNU7V24-1N-41">
          <mxGeometry width="50" height="50" relative="1" as="geometry">
            <mxPoint x="160.02999999999997" y="308" as="sourcePoint" />
            <mxPoint x="180" y="201.5" as="targetPoint" />
          </mxGeometry>
        </mxCell>
        <mxCell id="ZsytykOLIlVNU7V24-1N-28" value="P&lt;sub&gt;x,y&lt;/sub&gt;" style="text;html=1;align=center;verticalAlign=middle;resizable=1;points=[];autosize=1;strokeColor=none;fillColor=none;" vertex="1" parent="1">
          <mxGeometry x="309" y="260" width="31" height="20" as="geometry" />
        </mxCell>
        <mxCell id="ZsytykOLIlVNU7V24-1N-30" value="V&lt;sub&gt;dd&lt;/sub&gt;" style="text;html=1;align=center;verticalAlign=middle;resizable=0;points=[];autosize=1;strokeColor=none;fillColor=none;strokeWidth=1;" vertex="1" parent="1">
          <mxGeometry x="140" y="115" width="40" height="30" as="geometry" />
        </mxCell>
        <mxCell id="ZsytykOLIlVNU7V24-1N-40" value="" style="endArrow=none;html=1;rounded=0;" edge="1" parent="1">
          <mxGeometry width="50" height="50" relative="1" as="geometry">
            <mxPoint x="150" y="315" as="sourcePoint" />
            <mxPoint x="150" y="285" as="targetPoint" />
            <Array as="points">
              <mxPoint x="140" y="315" />
              <mxPoint x="140" y="285" />
            </Array>
          </mxGeometry>
        </mxCell>
        <mxCell id="ZsytykOLIlVNU7V24-1N-41" value="" style="ellipse;whiteSpace=wrap;html=1;aspect=fixed;" vertex="1" parent="1">
          <mxGeometry x="155" y="280" width="10" height="10" as="geometry" />
        </mxCell>
        <mxCell id="ZsytykOLIlVNU7V24-1N-42" value="" style="ellipse;whiteSpace=wrap;html=1;aspect=fixed;" vertex="1" parent="1">
          <mxGeometry x="155" y="310" width="10" height="10" as="geometry" />
        </mxCell>
        <mxCell id="ZsytykOLIlVNU7V24-1N-43" value="" style="endArrow=none;html=1;rounded=0;entryX=0.5;entryY=1;entryDx=0;entryDy=0;" edge="1" parent="1" target="ZsytykOLIlVNU7V24-1N-42">
          <mxGeometry width="50" height="50" relative="1" as="geometry">
            <mxPoint x="160" y="335" as="sourcePoint" />
            <mxPoint x="155" y="340" as="targetPoint" />
          </mxGeometry>
        </mxCell>
        <mxCell id="ZsytykOLIlVNU7V24-1N-44" value="" style="pointerEvents=1;verticalLabelPosition=bottom;shadow=0;dashed=0;align=center;html=1;verticalAlign=top;shape=mxgraph.electrical.resistors.resistor_2;direction=south;strokeWidth=1;" vertex="1" parent="1">
          <mxGeometry x="235" y="150" width="10" height="50" as="geometry" />
        </mxCell>
        <mxCell id="ZsytykOLIlVNU7V24-1N-45" value="V&lt;sub&gt;dd&lt;/sub&gt;" style="verticalLabelPosition=top;verticalAlign=bottom;shape=mxgraph.electrical.signal_sources.vdd;shadow=0;dashed=0;align=center;strokeWidth=1;fontSize=24;html=1;flipV=1;noLabel=1;" vertex="1" parent="1">
          <mxGeometry x="232" y="140" width="16" height="12" as="geometry" />
        </mxCell>
        <mxCell id="ZsytykOLIlVNU7V24-1N-46" value="" style="endArrow=none;html=1;rounded=0;entryX=0.5;entryY=0;entryDx=0;entryDy=0;entryPerimeter=0;exitX=0;exitY=0.5;exitDx=0;exitDy=0;exitPerimeter=0;strokeWidth=1;" edge="1" parent="1" source="ZsytykOLIlVNU7V24-1N-44" target="ZsytykOLIlVNU7V24-1N-45">
          <mxGeometry width="50" height="50" relative="1" as="geometry">
            <mxPoint x="210" y="140.5" as="sourcePoint" />
            <mxPoint x="260" y="90.5" as="targetPoint" />
          </mxGeometry>
        </mxCell>
        <mxCell id="ZsytykOLIlVNU7V24-1N-47" value="" style="endArrow=none;html=1;rounded=0;entryX=0.5;entryY=0;entryDx=0;entryDy=0;exitX=1;exitY=0.5;exitDx=0;exitDy=0;exitPerimeter=0;strokeWidth=1;" edge="1" parent="1" source="ZsytykOLIlVNU7V24-1N-44" target="ZsytykOLIlVNU7V24-1N-50">
          <mxGeometry width="50" height="50" relative="1" as="geometry">
            <mxPoint x="240.02999999999997" y="308" as="sourcePoint" />
            <mxPoint x="260" y="201.5" as="targetPoint" />
          </mxGeometry>
        </mxCell>
        <mxCell id="ZsytykOLIlVNU7V24-1N-48" value="V&lt;sub&gt;dd&lt;/sub&gt;" style="text;html=1;align=center;verticalAlign=middle;resizable=0;points=[];autosize=1;strokeColor=none;fillColor=none;strokeWidth=1;" vertex="1" parent="1">
          <mxGeometry x="220" y="115" width="40" height="30" as="geometry" />
        </mxCell>
        <mxCell id="ZsytykOLIlVNU7V24-1N-49" value="" style="endArrow=none;html=1;rounded=0;" edge="1" parent="1">
          <mxGeometry width="50" height="50" relative="1" as="geometry">
            <mxPoint x="230" y="315" as="sourcePoint" />
            <mxPoint x="230" y="285" as="targetPoint" />
            <Array as="points">
              <mxPoint x="220" y="315" />
              <mxPoint x="220" y="285" />
            </Array>
          </mxGeometry>
        </mxCell>
        <mxCell id="ZsytykOLIlVNU7V24-1N-50" value="" style="ellipse;whiteSpace=wrap;html=1;aspect=fixed;" vertex="1" parent="1">
          <mxGeometry x="235" y="280" width="10" height="10" as="geometry" />
        </mxCell>
        <mxCell id="ZsytykOLIlVNU7V24-1N-51" value="" style="ellipse;whiteSpace=wrap;html=1;aspect=fixed;" vertex="1" parent="1">
          <mxGeometry x="235" y="310" width="10" height="10" as="geometry" />
        </mxCell>
        <mxCell id="ZsytykOLIlVNU7V24-1N-52" value="" style="endArrow=none;html=1;rounded=0;entryX=0.5;entryY=1;entryDx=0;entryDy=0;" edge="1" parent="1" target="ZsytykOLIlVNU7V24-1N-51">
          <mxGeometry width="50" height="50" relative="1" as="geometry">
            <mxPoint x="240" y="335" as="sourcePoint" />
            <mxPoint x="235" y="340" as="targetPoint" />
          </mxGeometry>
        </mxCell>
        <mxCell id="ZsytykOLIlVNU7V24-1N-53" value="" style="endArrow=none;html=1;rounded=0;" edge="1" parent="1">
          <mxGeometry width="50" height="50" relative="1" as="geometry">
            <mxPoint x="160" y="270" as="sourcePoint" />
            <mxPoint x="310" y="270" as="targetPoint" />
          </mxGeometry>
        </mxCell>
        <mxCell id="ZsytykOLIlVNU7V24-1N-54" value="P&lt;sub&gt;i,j&lt;/sub&gt;" style="text;html=1;align=center;verticalAlign=middle;resizable=1;points=[];autosize=1;strokeColor=none;fillColor=none;" vertex="1" parent="1">
          <mxGeometry x="304.5" y="200" width="40" height="20" as="geometry" />
        </mxCell>
        <mxCell id="ZsytykOLIlVNU7V24-1N-58" value="" style="endArrow=none;html=1;rounded=0;" edge="1" parent="1">
          <mxGeometry width="50" height="50" relative="1" as="geometry">
            <mxPoint x="310" y="210" as="sourcePoint" />
            <mxPoint x="240" y="210" as="targetPoint" />
          </mxGeometry>
        </mxCell>
        <mxCell id="ZsytykOLIlVNU7V24-1N-59" value="" style="endArrow=none;dashed=1;html=1;dashPattern=1 3;strokeWidth=2;rounded=0;" edge="1" parent="1">
          <mxGeometry width="50" height="50" relative="1" as="geometry">
            <mxPoint x="280" y="250" as="sourcePoint" />
            <mxPoint x="280" y="230" as="targetPoint" />
          </mxGeometry>
        </mxCell>
        <mxCell id="ZsytykOLIlVNU7V24-1N-60" value="" style="endArrow=none;dashed=1;html=1;dashPattern=1 3;strokeWidth=2;rounded=0;" edge="1" parent="1">
          <mxGeometry width="50" height="50" relative="1" as="geometry">
            <mxPoint x="210" y="174.82999999999998" as="sourcePoint" />
            <mxPoint x="190" y="174.82999999999998" as="targetPoint" />
          </mxGeometry>
        </mxCell>
        <mxCell id="ZsytykOLIlVNU7V24-1N-61" value="" style="endArrow=none;html=1;rounded=0;" edge="1" parent="1">
          <mxGeometry width="50" height="50" relative="1" as="geometry">
            <mxPoint x="160" y="330" as="sourcePoint" />
            <mxPoint x="240" y="330" as="targetPoint" />
            <Array as="points">
              <mxPoint x="160" y="340" />
              <mxPoint x="240" y="340" />
            </Array>
          </mxGeometry>
        </mxCell>
        <mxCell id="ZsytykOLIlVNU7V24-1N-63" style="edgeStyle=orthogonalEdgeStyle;rounded=0;orthogonalLoop=1;jettySize=auto;html=1;exitX=0.5;exitY=0;exitDx=0;exitDy=0;exitPerimeter=0;endArrow=none;endFill=0;" edge="1" parent="1" source="ZsytykOLIlVNU7V24-1N-62">
          <mxGeometry relative="1" as="geometry">
            <mxPoint x="199.85714285714278" y="340" as="targetPoint" />
          </mxGeometry>
        </mxCell>
        <mxCell id="ZsytykOLIlVNU7V24-1N-62" value="" style="pointerEvents=1;verticalLabelPosition=bottom;shadow=0;dashed=0;align=center;html=1;verticalAlign=top;shape=mxgraph.electrical.signal_sources.protective_earth;" vertex="1" parent="1">
          <mxGeometry x="180" y="350" width="40" height="30" as="geometry" />
        </mxCell>
      </root>
    </mxGraphModel>
  </diagram>
</mxfile>
